<svg width="194" height="288" viewBox="0 0 194 288" fill="none" xmlns="http://www.w3.org/2000/svg">
<path fill-rule="evenodd" clip-rule="evenodd" d="M25.639 0H168.36C177.275 0 180.508 0.928 183.767 2.671C186.988 4.37595 189.622 7.00996 191.327 10.231C193.071 13.491 193.999 16.724 193.999 25.639V262.36C193.999 271.275 193.071 274.508 191.328 277.767C189.623 280.988 186.989 283.622 183.768 285.327C180.508 287.071 177.275 287.999 168.36 287.999H25.64C16.725 287.999 13.492 287.071 10.233 285.328C7.01196 283.623 4.37795 280.989 2.673 277.768C0.927 274.508 0 271.275 0 262.36V25.64C0 16.725 0.928 13.492 2.671 10.233C4.37595 7.01196 7.00996 4.37795 10.231 2.673C13.492 0.927 16.725 0 25.64 0H25.639Z" fill="black"/>
<path fill-rule="evenodd" clip-rule="evenodd" d="M25.357 1H168.643C177.113 1 180.183 1.882 183.28 3.538C186.34 5.15768 188.842 7.66 190.462 10.72C192.118 13.816 193 16.887 193 25.357V262.643C193 271.113 192.118 274.183 190.462 277.28C188.842 280.34 186.34 282.842 183.28 284.462C180.184 286.118 177.113 287 168.643 287H25.357C16.887 287 13.817 286.118 10.72 284.462C7.66 282.842 5.15768 280.34 3.538 277.28C1.882 274.184 1 271.113 1 262.643V25.357C1 16.887 1.882 13.817 3.538 10.72C5.15768 7.66 7.66 5.15768 10.72 3.538C13.816 1.882 16.887 1 25.357 1Z" fill="#FAD117"/>
<path fill-rule="evenodd" clip-rule="evenodd" d="M25.511 5H168.49C175.622 5 178.208 5.743 180.816 7.137C183.393 8.50094 185.5 10.6082 186.864 13.185C188.257 15.793 189 18.38 189 25.511V262.49C189 269.622 188.257 272.208 186.863 274.816C185.499 277.393 183.392 279.5 180.815 280.864C178.207 282.258 175.621 283.001 168.489 283.001H25.51C18.378 283.001 15.792 282.258 13.184 280.864C10.6072 279.5 8.49994 277.393 7.136 274.816C5.743 272.207 5 269.62 5 262.489V25.51C5 18.378 5.743 15.792 7.137 13.184C8.50094 10.6072 10.6082 8.49994 13.185 7.136C15.793 5.743 18.38 5 25.511 5Z" fill="black"/>
<path fill-rule="evenodd" clip-rule="evenodd" d="M22.256 12H171.744C175.311 12 176.604 12.371 177.907 13.069C179.195 13.751 180.249 14.8046 180.931 16.093C181.629 17.396 182 18.689 182 22.256V265.744C182 269.311 181.629 270.604 180.931 271.907C180.249 273.195 179.195 274.249 177.907 274.931C176.604 275.629 175.311 276 171.744 276H22.256C18.689 276 17.396 275.629 16.093 274.931C14.8046 274.249 13.751 273.195 13.069 271.907C12.371 270.604 12 269.311 12 265.744V22.256C12 18.689 12.371 17.396 13.069 16.093C13.751 14.8046 14.8046 13.751 16.093 13.069C17.396 12.37 18.689 12 22.256 12Z" fill="white"/>
<path d="M78.6191 174.259C75.4258 177.13 71.8516 178.565 67.8965 178.565C62.0957 178.565 57.4961 176.603 54.0977 172.677C50.6992 168.751 49 163.507 49 156.944C49 152.843 49.9521 149.034 51.8564 145.519C53.7607 142.003 56.4268 139.22 59.8545 137.169C63.3115 135.118 67.1201 134.093 71.2803 134.093C75.499 134.093 79.3076 135.162 82.7061 137.301C86.1338 139.41 88.7998 142.413 90.7041 146.31C92.6084 150.177 93.5898 154.645 93.6484 159.713V165.382C93.6484 172.442 92.2568 178.565 89.4736 183.751C86.7197 188.937 82.7793 192.921 77.6523 195.704C72.5254 198.487 66.5488 199.879 59.7227 199.879H58.7998V188.014L61.6123 187.97C71.8076 187.472 77.4766 182.901 78.6191 174.259ZM71.8955 167.887C75.1182 167.887 77.4326 166.495 78.8389 163.712V157.56C78.8389 153.458 78.1504 150.426 76.7734 148.463C75.3965 146.5 73.5361 145.519 71.1924 145.519C69.1123 145.519 67.3691 146.632 65.9629 148.858C64.5566 151.085 63.8535 153.78 63.8535 156.944C63.8535 160.284 64.5713 162.95 66.0068 164.942C67.4424 166.905 69.4053 167.887 71.8955 167.887Z" fill="black"/>
<path d="M145.987 172.853C145.987 181.495 144.039 188.16 140.143 192.848C136.275 197.535 130.812 199.879 123.751 199.879C116.632 199.879 111.124 197.521 107.228 192.804C103.331 188.087 101.383 181.437 101.383 172.853V161.163C101.383 152.521 103.316 145.855 107.184 141.168C111.08 136.48 116.573 134.137 123.663 134.137C130.753 134.137 136.246 136.495 140.143 141.212C144.039 145.929 145.987 152.594 145.987 161.207V172.853ZM131.178 159.273C131.178 154.674 130.577 151.246 129.376 148.99C128.175 146.705 126.271 145.562 123.663 145.562C121.114 145.562 119.254 146.617 118.082 148.727C116.939 150.836 116.324 154.029 116.236 158.307V174.654C116.236 179.43 116.837 182.931 118.038 185.157C119.239 187.354 121.144 188.453 123.751 188.453C126.271 188.453 128.131 187.384 129.332 185.245C130.533 183.077 131.148 179.693 131.178 175.094V159.273Z" fill="black"/>
<path d="M59 248V226.672H65.8701C67.7549 226.672 69.4492 227.102 70.9531 227.961C72.457 228.811 73.6289 230.017 74.4688 231.579C75.3184 233.132 75.748 234.875 75.7578 236.809V237.79C75.7578 239.743 75.3428 241.496 74.5127 243.049C73.6924 244.592 72.5303 245.803 71.0264 246.682C69.5322 247.551 67.8623 247.99 66.0166 248H59ZM64.1416 230.642V244.045H65.9287C67.4033 244.045 68.5361 243.522 69.3271 242.478C70.1182 241.423 70.5137 239.86 70.5137 237.79V236.867C70.5137 234.807 70.1182 233.254 69.3271 232.209C68.5361 231.164 67.3838 230.642 65.8701 230.642H64.1416Z" fill="black"/>
<path d="M91.6865 244.016H84.6406L83.4102 248H77.917L85.7393 226.672H90.5732L98.4541 248H92.9316L91.6865 244.016ZM85.8711 240.046H90.4561L88.1562 232.648L85.8711 240.046Z" fill="black"/>
<path d="M107.132 235.93L111.058 226.672H116.609L109.739 240.339V248H104.524V240.339L97.6689 226.672H103.191L107.132 235.93Z" fill="black"/>
<path d="M130.429 242.331C130.429 241.579 130.16 240.993 129.623 240.573C129.096 240.153 128.163 239.719 126.825 239.27C125.487 238.82 124.394 238.386 123.544 237.966C120.78 236.608 119.398 234.743 119.398 232.37C119.398 231.188 119.74 230.148 120.424 229.25C121.117 228.342 122.094 227.639 123.354 227.141C124.613 226.633 126.029 226.379 127.602 226.379C129.135 226.379 130.507 226.652 131.718 227.199C132.938 227.746 133.886 228.527 134.56 229.543C135.233 230.549 135.57 231.701 135.57 233H130.443C130.443 232.131 130.175 231.457 129.638 230.979C129.11 230.5 128.393 230.261 127.484 230.261C126.566 230.261 125.839 230.466 125.302 230.876C124.774 231.276 124.511 231.789 124.511 232.414C124.511 232.961 124.804 233.459 125.39 233.908C125.976 234.348 127.006 234.807 128.48 235.285C129.955 235.754 131.166 236.262 132.113 236.809C134.418 238.137 135.57 239.968 135.57 242.302C135.57 244.167 134.867 245.632 133.461 246.696C132.055 247.761 130.126 248.293 127.675 248.293C125.946 248.293 124.379 247.985 122.973 247.37C121.576 246.745 120.521 245.896 119.809 244.821C119.105 243.737 118.754 242.492 118.754 241.086H123.91C123.91 242.229 124.203 243.073 124.789 243.62C125.385 244.157 126.347 244.426 127.675 244.426C128.524 244.426 129.193 244.245 129.682 243.884C130.18 243.513 130.429 242.995 130.429 242.331Z" fill="black"/>
<path d="M48.8555 92.7266H60.7891V98H42V69.5625H48.8555V92.7266Z" fill="black"/>
<path d="M72.9844 98H66.1484V69.5625H72.9844V98Z" fill="black"/>
<path d="M88.7539 69.5625L95.1016 89.3477L101.43 69.5625H110.453V98H103.578V91.3594L104.242 77.7656L97.3672 98H92.8359L85.9414 77.7461L86.6055 91.3594V98H79.75V69.5625H88.7539Z" fill="black"/>
<path d="M124.133 98H117.297V69.5625H124.133V98Z" fill="black"/>
<path d="M152.637 74.8555H144.102V98H137.246V74.8555H128.867V69.5625H152.637V74.8555Z" fill="black"/>
<path d="M49.2699 29.5614C50.2257 31.1631 50.6567 32.8128 50.6567 34.8967C50.6567 41.5435 45.0641 50.178 40.5252 56.2411H30.1579L26 31.0167L35.0777 30.1422L37.276 48.0911C39.3301 44.696 41.8648 39.3607 41.8648 35.7231C41.8648 33.732 41.5287 32.3758 41.0032 31.2592L49.2699 29.5614Z" fill="#0D0F11"/>
<path d="M61.0353 40.6703C62.7058 40.6703 66.9113 39.895 66.9113 37.4699C66.9113 36.3055 66.0997 35.7246 65.1434 35.7246C63.4702 35.7246 61.2746 37.7602 61.0353 40.6703ZM60.8439 45.4732C60.8439 48.4343 62.4668 49.596 64.6182 49.596C66.9611 49.596 69.2043 49.0151 72.1199 47.5118L71.0218 55.0777C68.9675 56.096 65.7659 56.7755 62.6584 56.7755C54.7758 56.7755 51.9547 51.9254 51.9547 45.862C51.9547 38.0033 56.5437 29.6588 66.0047 29.6588C71.2137 29.6588 74.1264 32.6196 74.1264 36.7424C74.1268 43.3889 65.7188 45.4251 60.8439 45.4732Z" fill="#0D0F11"/>
<path d="M100.324 35.3842C100.324 36.3542 100.179 37.7612 100.034 38.6807L97.3109 56.1446H88.4716L90.9563 40.1357C91.0034 39.7015 91.1483 38.8274 91.1483 38.3424C91.1483 37.1778 90.4312 36.8873 89.5691 36.8873C88.424 36.8873 87.2762 37.4204 86.5119 37.8096L83.6936 56.1448H74.8046L78.8655 29.9983H86.559L86.6563 32.0853C88.4714 30.8727 90.8614 29.5614 94.2522 29.5614C98.7451 29.5609 100.324 31.8901 100.324 35.3842Z" fill="#0D0F11"/>
<path d="M126.566 32.521C129.097 30.6796 131.488 29.6588 134.783 29.6588C139.322 29.6588 140.901 31.9879 140.901 35.4821C140.901 36.4522 140.756 37.8591 140.612 38.7786L137.891 56.2424H129.05L131.582 39.8953C131.628 39.4583 131.727 38.9252 131.727 38.5871C131.727 37.276 131.009 36.9852 130.147 36.9852C129.05 36.9852 127.952 37.4702 127.137 37.9074L124.319 56.2427H115.48L118.012 39.8955C118.058 39.4585 118.154 38.9255 118.154 38.5874C118.154 37.2763 117.436 36.9855 116.577 36.9855C115.43 36.9855 114.284 37.5185 113.52 37.9077L110.699 56.243H101.813L105.874 30.0965H113.473L113.712 32.2793C115.48 30.9711 117.868 29.6597 121.069 29.6597C123.841 29.6588 125.656 30.8715 126.566 32.521Z" fill="#0D0F11"/>
<path d="M158.49 40.1369C158.49 38.0024 157.964 36.5472 156.388 36.5472C152.9 36.5472 152.183 42.8042 152.183 46.0051C152.183 48.4334 152.853 49.9362 154.429 49.9362C157.726 49.9362 158.49 43.3375 158.49 40.1369ZM143.2 45.6187C143.2 37.3732 147.5 29.6579 157.392 29.6579C164.846 29.6579 167.571 34.1218 167.571 40.2833C167.571 48.4331 163.318 56.873 153.187 56.873C145.685 56.873 143.2 51.876 143.2 45.6187Z" fill="#0D0F11"/>
</svg>
